<svg xmlns="http://www.w3.org/2000/svg" viewBox="0 0 64.29 62.6">
    <path 
        fill="currentColor"
        d="M48.66,45.76l10-1.8a30.25,30.25,0,0,1-4,4.12,20.91,20.91,0,0,0,7.76,11.16,1.86,1.86,0,0,1-1.24,3.35A59.37,59.37,0,0,1,51,61.06L47.35,48.78A4.47,4.47,0,0,0,48.66,45.76Zm-4.45,4.32a4.44,4.44,0,0,1-3.67-1.93L29.81,51.69l3.27,4.4a37.57,37.57,0,0,0,6.6-.76c1.73,1.77,4.64,3.74,9.53,5.22L46,49.72A4.37,4.37,0,0,1,44.21,50.08Zm-22.86,4.4a36.28,36.28,0,0,0,9.72,1.61l-2.88-3.86Zm-4.24-38.2a4.46,4.46,0,0,1-2.23,2L18,33.19h.09a4.34,4.34,0,0,1,1.66.32l8-12.6Zm36.77,16a4.46,4.46,0,0,1-3.7,2,4.92,4.92,0,0,1-.78-.07l-2.83,7.62a4.45,4.45,0,0,1,1.85,2.33L60,42.08a26.24,26.24,0,0,0,3-6C60.3,35,56.75,33.54,53.88,32.3ZM46.28,32,22.55,37.37c0,.1,0,.19,0,.28a4.46,4.46,0,0,1-1.06,2.89l7.28,9.79,11.09-3.65a4.24,4.24,0,0,1-.14-1.07,4.47,4.47,0,0,1,4.47-4.46,4.12,4.12,0,0,1,.86.09l2.82-7.59A4.5,4.5,0,0,1,46.28,32Zm-.52-1.53a4.48,4.48,0,0,1,0-.64,4.91,4.91,0,0,1,.12-1L29.22,21.56,21.13,34.37a4.47,4.47,0,0,1,1,1.44Zm-37-16.32a4.46,4.46,0,0,1,4.46-4.46l.37,0,.89-5.06A29.22,29.22,0,0,0,2.05,18.19l6.8-3A4.42,4.42,0,0,1,8.73,14.14ZM39.58,7.83A4.58,4.58,0,0,1,40,9.68a4.46,4.46,0,0,1-4.46,4.46,4.34,4.34,0,0,1-1.46-.25l-4,6.29,16.38,7.14a4.5,4.5,0,0,1,2.9-1.89V4.37a32.06,32.06,0,0,0-3.54-1.7ZM35.52,5.22a4.41,4.41,0,0,1,3.13,1.29L44.1,2A36.08,36.08,0,0,0,33.55,0c.46,1.58,1,3.36,1.6,5.21ZM20.26,41.56A4.44,4.44,0,0,1,15,40.81L7.41,46A32.16,32.16,0,0,0,18.87,53.6l8.31-2.74Zm-6.62-3.91a4.07,4.07,0,0,1,0-.61L.43,32.64a26.22,26.22,0,0,0,5.9,12.13L14,39.49A4.34,4.34,0,0,1,13.64,37.65Zm41-7.83a4.15,4.15,0,0,1-.12,1c3.35,1.44,6.59,2.78,8.91,3.69a24.71,24.71,0,0,0,.86-6.45C64.29,18.7,59,10.42,51,5.33v20.1A4.47,4.47,0,0,1,54.64,29.82ZM16.43,33.51,13.3,18.6h-.11A4.48,4.48,0,0,1,9.5,16.66L1.25,20.3A24.73,24.73,0,0,0,0,28.06a25.8,25.8,0,0,0,.16,2.79l14,4.65A4.53,4.53,0,0,1,16.43,33.51Zm1.22-19.37a3.94,3.94,0,0,1,0,.6l11,4.79,4.06-6.43a4.45,4.45,0,0,1,.94-7.44C32.84,3.36,32.27,1.5,31.84,0A35.57,35.57,0,0,0,16.25,3.67l-1.13,6.45A4.45,4.45,0,0,1,17.65,14.14Z"
    />
</svg>